<?xml version="1.0" encoding="utf-8"?>
<!-- Generator: Adobe Illustrator 16.0.0, SVG Export Plug-In . SVG Version: 6.00 Build 0)  -->
<!DOCTYPE svg PUBLIC "-//W3C//DTD SVG 1.1//EN" "http://www.w3.org/Graphics/SVG/1.1/DTD/svg11.dtd">
<svg version="1.1" id="Layer_1" xmlns="http://www.w3.org/2000/svg" xmlns:xlink="http://www.w3.org/1999/xlink" x="0px" y="0px"
	 width="1883.538px" height="500px" viewBox="0 0 1883.538 500" enable-background="new 0 0 1883.538 500" xml:space="preserve">
<g>
	<defs>
		<rect id="SVGID_1_" x="24.938" y="127.636" width="1571.063" height="244.728"/>
	</defs>
	<clipPath id="SVGID_2_">
		<use xlink:href="#SVGID_1_"  overflow="visible"/>
	</clipPath>
	<path clip-path="url(#SVGID_2_)" fill="#3251DF" d="M215.908,205.628l-62.238-77.993H46.623c-14.457,1-21.685,11.247-21.685,21.984
		c0,1.903,0.668,4.751,1.542,7.421l114.21,142.667L215.908,205.628z"/>
	<path clip-path="url(#SVGID_2_)" fill="#3A1F54" d="M215.908,205.817l-75.218,94.031l51.714,64.633
		c6.549,4.924,14.826,7.882,23.675,7.882c9.176,0,17.862-3.498,24.488-8.608l50.851-63.547L215.908,205.817z"/>
	<path clip-path="url(#SVGID_2_)" fill="#B15EE6" d="M247.029,127.635h-93.36l62.238,77.993l56.476-70.693
		C265.391,130.077,256.271,127.635,247.029,127.635"/>
	<path clip-path="url(#SVGID_2_)" fill="#AB0354" d="M335.85,211.165l-49.849-62.34c-4.438-6.168-9.156-10.512-13.618-13.604
		l-56.475,70.597l75.51,94.39l49.702-62.103C345.678,225.284,336.802,212.486,335.85,211.165"/>
	<path clip-path="url(#SVGID_2_)" fill="#FF505D" d="M408.068,148.255c0.206-13.175-11.939-18.62-21.037-20.62h-90.565
		c4.411,1,9.044,6.081,11.725,9.781l45.994,57.6c2.67,3.544,5.639,8.986,7.501,15.359l45.741-57.234
		C407.819,151.598,408.041,149.918,408.068,148.255"/>
	<path clip-path="url(#SVGID_2_)" d="M691.737,362.874h43.083c0,0,3.162,0,3.162-3.989V170.052c0-2.917-2.995-3.136-2.995-3.136
		h-44.084c-3.083,0-2.992,2.969-2.992,2.969v189.5C687.911,359.385,687.91,362.874,691.737,362.874"/>
	<path clip-path="url(#SVGID_2_)" d="M953.986,170.635v186c0,6.25-5,6-5,6h-38c0,0-6.362-0.143-9.268-4.978l-61.59-102.514
		c0,0-0.643-0.884-1.393-0.695c-0.75,0.187-0.75,1.187-0.75,1.187v103c0,4.167-4,4-4,4h-41c-3.833,0-4-4-4-4V170.041
		c0,0-0.062-3.406,4-3.406h45c0,0,2.884-0.092,4.227,2.438l61.175,115.032c0,0,0.318,0.749,1.036,0.594
		c0.719-0.157,0.563-1.063,0.563-1.063v-113c0,0-0.042-4,4-4h41C949.986,166.635,953.986,166.718,953.986,170.635"/>
	<path clip-path="url(#SVGID_2_)" d="M455.854,186.414l71.602,172.412c1.788,4.303,5.53,3.809,5.53,3.809h49
		c0,0,3.84,0.335,5.38-3.334l72.603-172.86c0.902-2.149,1.017-4.806,1.017-4.806v-12.063c0-2.938-3-2.938-3-2.938h-46
		c0,0-2.347-0.074-3.276,2.293l-49.505,126.102c0,0-0.515,1.174-1.8,1.174c-1.382,0-1.829-1.222-1.829-1.222L506.041,169.33
		c-1.084-2.749-4.055-2.695-4.055-2.695h-44c0,0-3,0.188-3,3v12C454.986,181.635,454.722,183.687,455.854,186.414"/>
	<path clip-path="url(#SVGID_2_)" d="M1321.986,166.635h-49c0,0-1.897-0.41-2.835,2.196l-63.922,177.489
		c-1.521,4.214-1.243,7.314-1.243,7.314v4.668c0,0,0.084,4.332,4.75,4.332h41.03c0,0,5.354,0.171,7.79-6.77l7.459-20.792
		c0.888-3.105,3.655-2.438,3.655-2.438h56.928c0,0,2.138,0.25,3.176,2.968l7.645,21.942c2.067,5.183,6.651,5.09,6.651,5.09
		l41.521-0.033c4.625,0,4.395-4.217,4.395-4.217v-5.75c0,0,0.39-1.635-1.136-5.874l-63.9-177.93
		C1324.164,166.641,1321.986,166.635,1321.986,166.635 M1299.557,246.105l16.392,48.005c1.33,3.894-1.962,3.524-1.962,3.524h-32.875
		c0,0-2.842,0.219-1.505-3.752l16.112-47.838c0,0,0.601-1.66,1.913-1.66C1298.946,244.385,1299.557,246.105,1299.557,246.105"/>
	<path clip-path="url(#SVGID_2_)" d="M1541.623,169.732l-35.73,49.844c-1.937,2.697-3.818-0.168-3.818-0.168l-36.045-50.211
		c-1.595-2.221-5.043-2.563-5.043-2.563h-45c-3.125,0-3,3-3,3v8c0,0-0.028,2.617,1.968,5.376l56.911,78.647
		c0,0,2.157,2.698,0.013,5.693l-57.225,79.645c-2.12,2.95-1.667,4.639-1.667,4.639v7c0,0,0.313,4,4,4h43c0,0,3.324-0.152,5.36-2.974
		l36.998-51.276c0,0,1.536-2.778,3.553,0.011l36.751,51.004c2.06,2.857,6.338,3.235,6.338,3.235h44c0,0,3,0.063,3-3v-7
		c0,0,0.293-2.557-1.849-5.549l-57.092-79.759c-1.942-2.711,0.094-5.693,0.094-5.693l56.793-78.877
		c2.234-3.103,2.054-6.122,2.054-6.122v-7c0,0,0.188-3-3-3h-46C1546.986,166.635,1543.744,166.774,1541.623,169.732"/>
	<path clip-path="url(#SVGID_2_)" d="M1012.111,362.635h45.13h35.182c101.166,0,92.563-77.351,92.563-77.351v-40.713
		c0,0,9.5-77.682-92.5-77.937h-79.914c-6.211,0-5.586,4.604-5.586,4.604v186.396
		C1006.986,357.635,1006.528,362.635,1012.111,362.635 M1061.19,201.635h31.232c0,0,43.563-0.245,43.563,42.937v40.713
		c0,40.455-38.469,43.189-43.469,43.351h-31.281c-4.75,0-4.25-3.625-4.25-3.625v-119.5
		C1056.986,205.51,1056.611,201.635,1061.19,201.635"/>
</g>
<g>
	<rect x="1619" y="104" width="17" height="64"/>
	<polygon points="1691.972,140.726 1669.389,104 1654,104 1654,168 1671.359,168 1670.934,132.399 1693.214,168 1709,168 1709,104 
		1691.313,104 	"/>
	<polygon points="1726,168 1743,168 1743,145 1762,145 1762,129 1743,129 1743,120 1762,120 1762,104 1726,104 	"/>
	<path d="M1832.138,112.45c-6.508-6.339-14.553-9.553-23.912-9.553c-11.352,0-20.466,4.425-27.086,13.149
		c-1.909,2.499-3.322,4.929-4.198,7.218c-1.65,4.253-2.487,8.846-2.487,13.651c0,9.078,3.391,16.871,10.073,23.161
		c6.533,6.197,14.479,9.339,23.616,9.339c9.386,0,17.457-3.199,23.995-9.512c6.568-6.401,9.899-14.397,9.899-23.767
		C1842.038,126.792,1838.707,118.823,1832.138,112.45z M1808.472,153.469c-4.774,0-8.594-1.7-11.682-5.203
		c-2.961-3.322-4.463-7.459-4.463-12.295c0-4.727,1.487-8.779,4.421-12.048c3.057-3.419,6.838-5.081,11.56-5.081
		c4.662,0,8.428,1.713,11.509,5.234c2.886,3.324,4.349,7.408,4.349,12.141c0,4.651-1.463,8.694-4.349,12.019
		C1816.761,151.757,1813.05,153.469,1808.472,153.469z"/>
</g>
</svg>
